#!OML:ASF F:\VICON\USERDATA\INSTALL\Justin_Nancy\Justin_Nancy.ASF
:FULLY-SPECIFIED
:DEGREES
32
root 1.56911 17.3456 -23.58 0.971049 -1.90854 5.20175
lowerback 5.87993 -1.10068 -6.57035
upperback 0.903701 -1.83104 2.01996
thorax -2.08911 -0.864437 5.93935
lowerneck -16.4363 -2.17125 -8.5763
upperneck 18.9292 -2.00072 5.57289
head 8.77283 -0.972725 3.07361
rclavicle -1.80894e-014 1.59028e-014
rhumerus -35.1984 -21.0088 -73.4144
rradius 25.3974
rwrist 11.8329
rhand -12.4077 13.8648
rfingers 7.12502
rthumb 13.6641 -15.6667
lclavicle -1.80894e-014 1.59028e-014
lhumerus -21.4765 6.7535 84.8915
lradius 26.2593
lwrist -12.0541
lhand -20.7987 21.5674
lfingers 7.12502
lthumb 5.56874 411.474
rfemur -29.3888 -1.44576 15.3392
rtibia 23.6642
rfoot -2.083 -11.4627
rtoes -2.19439
lfemur 2.281 0.307318 -29.1993
ltibia 21.2718
lfoot -18.3595 3.1149
ltoes -1.81954
33
root 1.54589 17.3383 -23.4326 1.07238 -1.71603 5.2525
lowerback 5.85041 -1.20515 -6.67691
upperback 0.828254 -1.9769 2.01395
thorax -2.12568 -0.932914 6.00397
lowerneck -16.2781 -2.08836 -8.63476
upperneck 18.9726 -1.91205 5.6899
head 8.75323 -0.92562 3.13539
rclavicle 8.15017e-015 -2.94201e-014
rhumerus -35.463 -21.2833 -73.2094
rradius 25.1502
rwrist 12.4346
rhand -12.5548 13.3086
rfingers 7.12502
rthumb 13.5223 -16.2324
lclavicle 8.15017e-015 -2.94201e-014
lhumerus -21.39 6.48543 84.8332
lradius 26.4741
lwrist -11.8571
lhand -21.065 20.3653
lfingers 7.12502
lthumb 5.31154 410.279
rfemur -28.7765 -0.802839 14.9788
rtibia 20.5115
rfoot -1.67779 -11.2838
rtoes -5.89047
lfemur 2.88335 0.465925 -29.1551
ltibia 20.8751
lfoot -18.3075 2.91861
ltoes -2.15961
34
root 1.52239 17.3339 -23.2845 1.32275 -1.77111 5.1368
lowerback 5.67737 -1.28701 -6.67914
upperback 0.642121 -2.07715 2.08811
thorax -2.20441 -0.974209 6.088
lowerneck -15.9339 -2.07744 -8.4922
upperneck 18.7252 -1.90847 5.46532
head 8.60345 -0.938807 3.03041
rclavicle -3.29983e-014 3.97569e-015
rhumerus -35.8307 -21.5242 -72.9502
rradius 24.9173
rwrist 12.8705
rhand -12.6691 10.5656
rfingers 7.12502
rthumb 13.4121 -18.9827
lclavicle -3.29983e-014 3.97569e-015
lhumerus -21.5471 6.49774 84.7566
lradius 26.7335
lwrist -11.709
lhand -20.9749 22.2467
lfingers 7.12502
lthumb 5.3986 412.158
rfemur -28.2682 0.22563 14.7429
rtibia 17.4239
rfoot -1.93742 -11.5547
rtoes -8.28458
lfemur 3.26101 0.666657 -28.9704
ltibia 20.528
lfoot -18.1962 3.01008
ltoes -3.37962
35
root 1.50073 17.3294 -23.1334 1.44021 -1.37638 5.13832
lowerback 5.74296 -1.46231 -6.72671
upperback 0.560515 -2.31873 2.13665
thorax -2.28505 -1.0887 6.1863
lowerneck -16.204 -2.15799 -8.49077
upperneck 18.8088 -1.98351 5.395
head 8.68617 -0.979016 2.99813
rclavicle -4.11484e-014 2.38542e-015
rhumerus -36.0296 -21.5097 -72.797
rradius 24.7012
rwrist 12.9692
rhand -12.7216 9.86003
rfingers 7.12502
rthumb 13.3615 -19.6915
lclavicle -4.11484e-014 2.38542e-015
lhumerus -21.3631 6.34515 84.7994
lradius 26.777
lwrist -11.3443
lhand -20.9044 23.1532
lfingers 7.12502
lthumb 5.46665 413.063
rfemur -27.3135 0.905522 14.3372
rtibia 14.241
rfoot -2.7123 -12.1615
rtoes -8.15606
lfemur 3.77597 0.643676 -28.8395
ltibia 20.3505
lfoot -18.2434 2.80496
ltoes -4.50892
36
root 1.47962 17.3197 -22.9861 1.46511 -0.8227 5.22707
lowerback 5.98969 -1.62948 -6.85271
upperback 0.514002 -2.56659 2.15884
thorax -2.42666 -1.20395 6.30946
lowerneck -16.4508 -2.24046 -8.55964
upperneck 18.8293 -2.06921 5.44441
head 8.7458 -1.01616 3.01629
rclavicle -1.87852e-014 -6.36111e-015
rhumerus -36.1783 -22.0323 -72.3903
rradius 24.2877
rwrist 13.5298
rhand -12.7195 10.75
rfingers 7.12502
rthumb 13.3636 -18.8015
lclavicle -1.87852e-014 -6.36111e-015
lhumerus -21.1481 6.1837 84.8787
lradius 26.9199
lwrist -11.0594
lhand -20.7109 22.9524
lfingers 7.12502
lthumb 5.6535 412.857
rfemur -26.0586 1.31433 13.8673
rtibia 10.8675
rfoot -3.0612 -12.5032
rtoes -8.62211
lfemur 4.36333 0.36559 -28.7794
ltibia 20.3547
lfoot -18.4447 2.4565
ltoes -4.32017
37
root 1.46053 17.3177 -22.8418 1.42349 -0.749346 5.23934
lowerback 6.13793 -1.59211 -6.83181
upperback 0.540485 -2.52607 2.10394
thorax -2.49197 -1.18205 6.24266
lowerneck -16.4366 -2.37875 -8.46786
upperneck 18.7015 -2.27217 5.39836
head 8.71389 -1.1084 2.95797
rclavicle 8.44835e-015 -9.54166e-015
rhumerus -36.3043 -22.8469 -72.0399
rradius 23.8438
rwrist 14.3411
rhand -12.9691 10.659
rfingers 7.12502
rthumb 13.123 -18.9081
lclavicle 8.44835e-015 -9.54166e-015
lhumerus -21.1087 5.8637 84.87
lradius 27.3034
lwrist -10.7652
lhand -20.5945 21.6277
lfingers 7.12502
lthumb 5.76585 411.529
rfemur -24.5848 1.06568 13.9584
rtibia 7.29398
rfoot -2.85993 -11.7402
rtoes -10.1864
lfemur 4.81467 0.161404 -28.7488
ltibia 20.4773
lfoot -18.4326 2.3157
ltoes -3.577
